<svg xmlns="http://www.w3.org/2000/svg" width="1804" height="842" viewBox="0 0 1804 842">
  <style>
  @media (prefers-color-scheme: dark) {
    .bg { fill: #1A1A2E !important; }
    .border { stroke: #333 !important; }
    .title { fill: #E8E8E8 !important; }
    .subtitle { fill: #888 !important; }
    .grid { stroke: #333 !important; }
    .grid-base { stroke: #444 !important; }
    .axis-label { fill: #666 !important; }
    .bar-bg { fill: #2A2A3E !important; }
    .rank-label { fill: #CCC !important; }
    .cal-label { fill: #DDD !important; }
    .name-label { fill: #E8E8E8 !important; }
    .name-sub { fill: #666 !important; }
    .legend-text { fill: #AAA !important; }
    .inv-row-alt { fill: #16213E !important; }
    .inv-name { fill: #E8E8E8 !important; }
    .inv-sub { fill: #666 !important; }
    .inv-bar-bg { fill: #333 !important; }
    .inv-pct { fill: #888 !important; }
  }
</style>
  <rect class="bg" width="1804" height="842" fill="#FFFFFF"/>
  <rect class="border" width="1804" height="842" rx="12" fill="none" stroke="#E8E8E8" stroke-width="1"/>
  <text class="title" x="902" y="30" text-anchor="middle" font-family="system-ui,-apple-system,'Segoe UI',sans-serif" font-size="17" font-weight="700" fill="#1A1A2E">&#x1F37F; 간식 기여도</text>
  <text class="subtitle" x="902" y="52" text-anchor="middle" font-family="system-ui,-apple-system,'Segoe UI',sans-serif" font-size="12" fill="#999">총 칼로리 102,400 kcal · 참여자 30명 · 총 간식 625개</text>
  <line class="grid-base" x1="54" y1="360" x2="1784" y2="360" stroke="#DDDDDD" stroke-width="1"/>
  <text class="axis-label" x="50" y="364" text-anchor="end" font-family="system-ui,-apple-system,'Segoe UI',sans-serif" font-size="10" fill="#BBBBBB">0</text>
  <line class="grid" x1="54" y1="304" x2="1784" y2="304" stroke="#EFEFEF" stroke-width="1"/>
  <text class="axis-label" x="50" y="308" text-anchor="end" font-family="system-ui,-apple-system,'Segoe UI',sans-serif" font-size="10" fill="#BBBBBB">4.1천</text>
  <line class="grid" x1="54" y1="248" x2="1784" y2="248" stroke="#EFEFEF" stroke-width="1"/>
  <text class="axis-label" x="50" y="252" text-anchor="end" font-family="system-ui,-apple-system,'Segoe UI',sans-serif" font-size="10" fill="#BBBBBB">8.1천</text>
  <line class="grid" x1="54" y1="192" x2="1784" y2="192" stroke="#EFEFEF" stroke-width="1"/>
  <text class="axis-label" x="50" y="196" text-anchor="end" font-family="system-ui,-apple-system,'Segoe UI',sans-serif" font-size="10" fill="#BBBBBB">12천</text>
  <line class="grid" x1="54" y1="136" x2="1784" y2="136" stroke="#EFEFEF" stroke-width="1"/>
  <text class="axis-label" x="50" y="140" text-anchor="end" font-family="system-ui,-apple-system,'Segoe UI',sans-serif" font-size="10" fill="#BBBBBB">16천</text>
  <line class="grid" x1="54" y1="80" x2="1784" y2="80" stroke="#EFEFEF" stroke-width="1"/>
  <text class="axis-label" x="50" y="84" text-anchor="end" font-family="system-ui,-apple-system,'Segoe UI',sans-serif" font-size="10" fill="#BBBBBB">20천</text>
  <clipPath id="c0"><rect x="58" y="80" width="44" height="280" rx="5"/></clipPath>
  <rect class="bar-bg" x="58" y="80" width="44" height="280" rx="5" fill="#F5F5F5"/>
  <g clip-path="url(#c0)">
    <rect x="58" y="308" width="44" height="52" fill="#A57BDB"/>
    <rect x="58" y="209" width="44" height="99" fill="#4D96FF"/>
    <rect x="58" y="156" width="44" height="53" fill="#6BCB77"/>
    <rect x="58" y="101" width="44" height="55" fill="#FFD93D"/>
    <rect x="58" y="80" width="44" height="21" fill="#FF6B6B"/>
  </g>
  <text class="rank-label" x="80" y="60" text-anchor="middle" font-family="system-ui,-apple-system,'Segoe UI',sans-serif" font-size="16" fill="#555">🥇</text>
  <text class="cal-label" x="80" y="74" text-anchor="middle" font-family="system-ui,-apple-system,'Segoe UI',sans-serif" font-size="10" font-weight="600" fill="#444">20,290</text>
  <text class="name-label" x="80" y="378" text-anchor="middle" font-family="system-ui,-apple-system,'Segoe UI',sans-serif" font-size="12" font-weight="700" fill="#333">김경록</text>
  <text class="name-sub" x="80" y="392" text-anchor="middle" font-family="system-ui,-apple-system,'Segoe UI',sans-serif" font-size="10" fill="#BBBBBB">@kimgyeongrok</text>
  <clipPath id="c1"><rect x="116" y="99" width="44" height="261" rx="5"/></clipPath>
  <rect class="bar-bg" x="116" y="99" width="44" height="261" rx="5" fill="#F5F5F5"/>
  <g clip-path="url(#c1)">
    <rect x="116" y="345" width="44" height="15" fill="#38D9A9"/>
    <rect x="116" y="279" width="44" height="66" fill="#4D96FF"/>
    <rect x="116" y="200" width="44" height="79" fill="#6BCB77"/>
    <rect x="116" y="101" width="44" height="99" fill="#FF9F43"/>
  </g>
  <text class="rank-label" x="138" y="79" text-anchor="middle" font-family="system-ui,-apple-system,'Segoe UI',sans-serif" font-size="16" fill="#555">🥈</text>
  <text class="cal-label" x="138" y="93" text-anchor="middle" font-family="system-ui,-apple-system,'Segoe UI',sans-serif" font-size="10" font-weight="600" fill="#444">18,880</text>
  <text class="name-label" x="138" y="378" text-anchor="middle" font-family="system-ui,-apple-system,'Segoe UI',sans-serif" font-size="12" font-weight="700" fill="#333">박동민</text>
  <text class="name-sub" x="138" y="392" text-anchor="middle" font-family="system-ui,-apple-system,'Segoe UI',sans-serif" font-size="10" fill="#BBBBBB">@parkdongmin</text>
  <clipPath id="c2"><rect x="174" y="215" width="44" height="145" rx="5"/></clipPath>
  <rect class="bar-bg" x="174" y="215" width="44" height="145" rx="5" fill="#F5F5F5"/>
  <g clip-path="url(#c2)">
    <rect x="174" y="331" width="44" height="29" fill="#38D9A9"/>
    <rect x="174" y="311" width="44" height="20" fill="#FDCB6E"/>
    <rect x="174" y="294" width="44" height="17" fill="#74B9FF"/>
    <rect x="174" y="215" width="44" height="79" fill="#F06595"/>
  </g>
  <text class="rank-label" x="196" y="195" text-anchor="middle" font-family="system-ui,-apple-system,'Segoe UI',sans-serif" font-size="16" fill="#555">🥉</text>
  <text class="cal-label" x="196" y="209" text-anchor="middle" font-family="system-ui,-apple-system,'Segoe UI',sans-serif" font-size="10" font-weight="600" fill="#444">10,500</text>
  <text class="name-label" x="196" y="378" text-anchor="middle" font-family="system-ui,-apple-system,'Segoe UI',sans-serif" font-size="12" font-weight="700" fill="#333">정재환</text>
  <text class="name-sub" x="196" y="392" text-anchor="middle" font-family="system-ui,-apple-system,'Segoe UI',sans-serif" font-size="10" fill="#BBBBBB">@jeongjehwan</text>
  <clipPath id="c3"><rect x="232" y="228" width="44" height="132" rx="5"/></clipPath>
  <rect class="bar-bg" x="232" y="228" width="44" height="132" rx="5" fill="#F5F5F5"/>
  <g clip-path="url(#c3)">
    <rect x="232" y="228" width="44" height="132" fill="#6BCB77"/>
  </g>
  <text class="rank-label" x="254" y="208" text-anchor="middle" font-family="system-ui,-apple-system,'Segoe UI',sans-serif" font-size="16" fill="#555">#4</text>
  <text class="cal-label" x="254" y="222" text-anchor="middle" font-family="system-ui,-apple-system,'Segoe UI',sans-serif" font-size="10" font-weight="600" fill="#444">9,600</text>
  <text class="name-label" x="254" y="378" text-anchor="middle" font-family="system-ui,-apple-system,'Segoe UI',sans-serif" font-size="12" font-weight="700" fill="#333">배민준</text>
  <text class="name-sub" x="254" y="392" text-anchor="middle" font-family="system-ui,-apple-system,'Segoe UI',sans-serif" font-size="10" fill="#BBBBBB">@sisoin</text>
  <clipPath id="c4"><rect x="290" y="271" width="44" height="89" rx="5"/></clipPath>
  <rect class="bar-bg" x="290" y="271" width="44" height="89" rx="5" fill="#F5F5F5"/>
  <g clip-path="url(#c4)">
    <rect x="290" y="334" width="44" height="26" fill="#FD79A8"/>
    <rect x="290" y="317" width="44" height="17" fill="#6C5CE7"/>
    <rect x="290" y="298" width="44" height="19" fill="#00CEC9"/>
    <rect x="290" y="272" width="44" height="26" fill="#E17055"/>
  </g>
  <text class="rank-label" x="312" y="251" text-anchor="middle" font-family="system-ui,-apple-system,'Segoe UI',sans-serif" font-size="16" fill="#555">#5</text>
  <text class="cal-label" x="312" y="265" text-anchor="middle" font-family="system-ui,-apple-system,'Segoe UI',sans-serif" font-size="10" font-weight="600" fill="#444">6,440</text>
  <text class="name-label" x="312" y="378" text-anchor="middle" font-family="system-ui,-apple-system,'Segoe UI',sans-serif" font-size="12" font-weight="700" fill="#333">한준교</text>
  <text class="name-sub" x="312" y="392" text-anchor="middle" font-family="system-ui,-apple-system,'Segoe UI',sans-serif" font-size="10" fill="#BBBBBB">@hanjungyo</text>
  <clipPath id="c5"><rect x="348" y="284" width="44" height="76" rx="5"/></clipPath>
  <rect class="bar-bg" x="348" y="284" width="44" height="76" rx="5" fill="#F5F5F5"/>
  <g clip-path="url(#c5)">
    <rect x="348" y="350" width="44" height="10" fill="#38D9A9"/>
    <rect x="348" y="284" width="44" height="66" fill="#4D96FF"/>
  </g>
  <text class="rank-label" x="370" y="264" text-anchor="middle" font-family="system-ui,-apple-system,'Segoe UI',sans-serif" font-size="16" fill="#555">#6</text>
  <text class="cal-label" x="370" y="278" text-anchor="middle" font-family="system-ui,-apple-system,'Segoe UI',sans-serif" font-size="10" font-weight="600" fill="#444">5,500</text>
  <text class="name-label" x="370" y="378" text-anchor="middle" font-family="system-ui,-apple-system,'Segoe UI',sans-serif" font-size="12" font-weight="700" fill="#333">임수현</text>
  <text class="name-sub" x="370" y="392" text-anchor="middle" font-family="system-ui,-apple-system,'Segoe UI',sans-serif" font-size="10" fill="#BBBBBB">@imsuhyeon</text>
  <clipPath id="c6"><rect x="406" y="326" width="44" height="34" rx="5"/></clipPath>
  <rect class="bar-bg" x="406" y="326" width="44" height="34" rx="5" fill="#F5F5F5"/>
  <g clip-path="url(#c6)">
    <rect x="406" y="354" width="44" height="6" fill="#B2BEC3"/>
    <rect x="406" y="326" width="44" height="28" fill="#A57BDB"/>
  </g>
  <text class="rank-label" x="428" y="306" text-anchor="middle" font-family="system-ui,-apple-system,'Segoe UI',sans-serif" font-size="16" fill="#555">#7</text>
  <text class="cal-label" x="428" y="320" text-anchor="middle" font-family="system-ui,-apple-system,'Segoe UI',sans-serif" font-size="10" font-weight="600" fill="#444">2,450</text>
  <text class="name-label" x="428" y="378" text-anchor="middle" font-family="system-ui,-apple-system,'Segoe UI',sans-serif" font-size="12" font-weight="700" fill="#333">배민</text>
  <text class="name-sub" x="428" y="392" text-anchor="middle" font-family="system-ui,-apple-system,'Segoe UI',sans-serif" font-size="10" fill="#BBBBBB">@baemin</text>
  <clipPath id="c7"><rect x="464" y="327" width="44" height="33" rx="5"/></clipPath>
  <rect class="bar-bg" x="464" y="327" width="44" height="33" rx="5" fill="#F5F5F5"/>
  <g clip-path="url(#c7)">
    <rect x="464" y="353" width="44" height="7" fill="#FFD93D"/>
    <rect x="464" y="327" width="44" height="26" fill="#FF6B6B"/>
  </g>
  <text class="rank-label" x="486" y="307" text-anchor="middle" font-family="system-ui,-apple-system,'Segoe UI',sans-serif" font-size="16" fill="#555">#8</text>
  <text class="cal-label" x="486" y="321" text-anchor="middle" font-family="system-ui,-apple-system,'Segoe UI',sans-serif" font-size="10" font-weight="600" fill="#444">2,420</text>
  <text class="name-label" x="486" y="378" text-anchor="middle" font-family="system-ui,-apple-system,'Segoe UI',sans-serif" font-size="12" font-weight="700" fill="#333">이채연</text>
  <text class="name-sub" x="486" y="392" text-anchor="middle" font-family="system-ui,-apple-system,'Segoe UI',sans-serif" font-size="10" fill="#BBBBBB">@leechaeyeon</text>
  <clipPath id="c8"><rect x="522" y="328" width="44" height="32" rx="5"/></clipPath>
  <rect class="bar-bg" x="522" y="328" width="44" height="32" rx="5" fill="#F5F5F5"/>
  <g clip-path="url(#c8)">
    <rect x="522" y="354" width="44" height="6" fill="#4D96FF"/>
    <rect x="522" y="328" width="44" height="26" fill="#6BCB77"/>
  </g>
  <text class="rank-label" x="544" y="308" text-anchor="middle" font-family="system-ui,-apple-system,'Segoe UI',sans-serif" font-size="16" fill="#555">#9</text>
  <text class="cal-label" x="544" y="322" text-anchor="middle" font-family="system-ui,-apple-system,'Segoe UI',sans-serif" font-size="10" font-weight="600" fill="#444">2,340</text>
  <text class="name-label" x="544" y="378" text-anchor="middle" font-family="system-ui,-apple-system,'Segoe UI',sans-serif" font-size="12" font-weight="700" fill="#333">백강민</text>
  <text class="name-sub" x="544" y="392" text-anchor="middle" font-family="system-ui,-apple-system,'Segoe UI',sans-serif" font-size="10" fill="#BBBBBB">@baekgangmin</text>
  <clipPath id="c9"><rect x="580" y="329" width="44" height="31" rx="5"/></clipPath>
  <rect class="bar-bg" x="580" y="329" width="44" height="31" rx="5" fill="#F5F5F5"/>
  <g clip-path="url(#c9)">
    <rect x="580" y="354" width="44" height="6" fill="#FF9F43"/>
    <rect x="580" y="329" width="44" height="25" fill="#A57BDB"/>
  </g>
  <text class="rank-label" x="602" y="309" text-anchor="middle" font-family="system-ui,-apple-system,'Segoe UI',sans-serif" font-size="16" fill="#555">#10</text>
  <text class="cal-label" x="602" y="323" text-anchor="middle" font-family="system-ui,-apple-system,'Segoe UI',sans-serif" font-size="10" font-weight="600" fill="#444">2,250</text>
  <text class="name-label" x="602" y="378" text-anchor="middle" font-family="system-ui,-apple-system,'Segoe UI',sans-serif" font-size="12" font-weight="700" fill="#333">정찬혁</text>
  <text class="name-sub" x="602" y="392" text-anchor="middle" font-family="system-ui,-apple-system,'Segoe UI',sans-serif" font-size="10" fill="#BBBBBB">@jeongchanhyeok</text>
  <clipPath id="c10"><rect x="638" y="333" width="44" height="27" rx="5"/></clipPath>
  <rect class="bar-bg" x="638" y="333" width="44" height="27" rx="5" fill="#F5F5F5"/>
  <g clip-path="url(#c10)">
    <rect x="638" y="349" width="44" height="11" fill="#F06595"/>
    <rect x="638" y="332" width="44" height="17" fill="#38D9A9"/>
  </g>
  <text class="rank-label" x="660" y="313" text-anchor="middle" font-family="system-ui,-apple-system,'Segoe UI',sans-serif" font-size="16" fill="#555">#11</text>
  <text class="cal-label" x="660" y="327" text-anchor="middle" font-family="system-ui,-apple-system,'Segoe UI',sans-serif" font-size="10" font-weight="600" fill="#444">1,980</text>
  <text class="name-label" x="660" y="378" text-anchor="middle" font-family="system-ui,-apple-system,'Segoe UI',sans-serif" font-size="12" font-weight="700" fill="#333">이준수</text>
  <text class="name-sub" x="660" y="392" text-anchor="middle" font-family="system-ui,-apple-system,'Segoe UI',sans-serif" font-size="10" fill="#BBBBBB">@leejunsu</text>
  <clipPath id="c11"><rect x="696" y="336" width="44" height="24" rx="5"/></clipPath>
  <rect class="bar-bg" x="696" y="336" width="44" height="24" rx="5" fill="#F5F5F5"/>
  <g clip-path="url(#c11)">
    <rect x="696" y="356" width="44" height="4" fill="#FDCB6E"/>
    <rect x="696" y="336" width="44" height="20" fill="#74B9FF"/>
  </g>
  <text class="rank-label" x="718" y="316" text-anchor="middle" font-family="system-ui,-apple-system,'Segoe UI',sans-serif" font-size="16" fill="#555">#12</text>
  <text class="cal-label" x="718" y="330" text-anchor="middle" font-family="system-ui,-apple-system,'Segoe UI',sans-serif" font-size="10" font-weight="600" fill="#444">1,740</text>
  <text class="name-label" x="718" y="378" text-anchor="middle" font-family="system-ui,-apple-system,'Segoe UI',sans-serif" font-size="12" font-weight="700" fill="#333">이성민</text>
  <text class="name-sub" x="718" y="392" text-anchor="middle" font-family="system-ui,-apple-system,'Segoe UI',sans-serif" font-size="10" fill="#BBBBBB">@leesungmin</text>
  <clipPath id="c12"><rect x="754" y="336" width="44" height="24" rx="5"/></clipPath>
  <rect class="bar-bg" x="754" y="336" width="44" height="24" rx="5" fill="#F5F5F5"/>
  <g clip-path="url(#c12)">
    <rect x="754" y="356" width="44" height="4" fill="#00CEC9"/>
    <rect x="754" y="336" width="44" height="20" fill="#E17055"/>
  </g>
  <text class="rank-label" x="776" y="316" text-anchor="middle" font-family="system-ui,-apple-system,'Segoe UI',sans-serif" font-size="16" fill="#555">#13</text>
  <text class="cal-label" x="776" y="330" text-anchor="middle" font-family="system-ui,-apple-system,'Segoe UI',sans-serif" font-size="10" font-weight="600" fill="#444">1,720</text>
  <text class="name-label" x="776" y="378" text-anchor="middle" font-family="system-ui,-apple-system,'Segoe UI',sans-serif" font-size="12" font-weight="700" fill="#333">이주원</text>
  <text class="name-sub" x="776" y="392" text-anchor="middle" font-family="system-ui,-apple-system,'Segoe UI',sans-serif" font-size="10" fill="#BBBBBB">@leejuwon</text>
  <clipPath id="c13"><rect x="812" y="338" width="44" height="22" rx="5"/></clipPath>
  <rect class="bar-bg" x="812" y="338" width="44" height="22" rx="5" fill="#F5F5F5"/>
  <g clip-path="url(#c13)">
    <rect x="812" y="354" width="44" height="6" fill="#FD79A8"/>
    <rect x="812" y="337" width="44" height="17" fill="#6C5CE7"/>
  </g>
  <text class="rank-label" x="834" y="318" text-anchor="middle" font-family="system-ui,-apple-system,'Segoe UI',sans-serif" font-size="16" fill="#555">#14</text>
  <text class="cal-label" x="834" y="332" text-anchor="middle" font-family="system-ui,-apple-system,'Segoe UI',sans-serif" font-size="10" font-weight="600" fill="#444">1,620</text>
  <text class="name-label" x="834" y="378" text-anchor="middle" font-family="system-ui,-apple-system,'Segoe UI',sans-serif" font-size="12" font-weight="700" fill="#333">김현문</text>
  <text class="name-sub" x="834" y="392" text-anchor="middle" font-family="system-ui,-apple-system,'Segoe UI',sans-serif" font-size="10" fill="#BBBBBB">@kimhyeonmun</text>
  <clipPath id="c14"><rect x="870" y="338" width="44" height="22" rx="5"/></clipPath>
  <rect class="bar-bg" x="870" y="338" width="44" height="22" rx="5" fill="#F5F5F5"/>
  <g clip-path="url(#c14)">
    <rect x="870" y="352" width="44" height="8" fill="#FF6B6B"/>
    <rect x="870" y="339" width="44" height="13" fill="#B2BEC3"/>
  </g>
  <text class="rank-label" x="892" y="318" text-anchor="middle" font-family="system-ui,-apple-system,'Segoe UI',sans-serif" font-size="16" fill="#555">#15</text>
  <text class="cal-label" x="892" y="332" text-anchor="middle" font-family="system-ui,-apple-system,'Segoe UI',sans-serif" font-size="10" font-weight="600" fill="#444">1,560</text>
  <text class="name-label" x="892" y="378" text-anchor="middle" font-family="system-ui,-apple-system,'Segoe UI',sans-serif" font-size="12" font-weight="700" fill="#333">권세빈</text>
  <text class="name-sub" x="892" y="392" text-anchor="middle" font-family="system-ui,-apple-system,'Segoe UI',sans-serif" font-size="10" fill="#BBBBBB">@gwonsebin</text>
  <clipPath id="c15"><rect x="928" y="338" width="44" height="22" rx="5"/></clipPath>
  <rect class="bar-bg" x="928" y="338" width="44" height="22" rx="5" fill="#F5F5F5"/>
  <g clip-path="url(#c15)">
    <rect x="928" y="352" width="44" height="8" fill="#6BCB77"/>
    <rect x="928" y="339" width="44" height="13" fill="#FFD93D"/>
  </g>
  <text class="rank-label" x="950" y="318" text-anchor="middle" font-family="system-ui,-apple-system,'Segoe UI',sans-serif" font-size="16" fill="#555">#16</text>
  <text class="cal-label" x="950" y="332" text-anchor="middle" font-family="system-ui,-apple-system,'Segoe UI',sans-serif" font-size="10" font-weight="600" fill="#444">1,560</text>
  <text class="name-label" x="950" y="378" text-anchor="middle" font-family="system-ui,-apple-system,'Segoe UI',sans-serif" font-size="12" font-weight="700" fill="#333">임진영</text>
  <text class="name-sub" x="950" y="392" text-anchor="middle" font-family="system-ui,-apple-system,'Segoe UI',sans-serif" font-size="10" fill="#BBBBBB">@imjinyeong</text>
  <clipPath id="c16"><rect x="986" y="338" width="44" height="22" rx="5"/></clipPath>
  <rect class="bar-bg" x="986" y="338" width="44" height="22" rx="5" fill="#F5F5F5"/>
  <g clip-path="url(#c16)">
    <rect x="986" y="352" width="44" height="8" fill="#A57BDB"/>
    <rect x="986" y="339" width="44" height="13" fill="#4D96FF"/>
  </g>
  <text class="rank-label" x="1008" y="318" text-anchor="middle" font-family="system-ui,-apple-system,'Segoe UI',sans-serif" font-size="16" fill="#555">#17</text>
  <text class="cal-label" x="1008" y="332" text-anchor="middle" font-family="system-ui,-apple-system,'Segoe UI',sans-serif" font-size="10" font-weight="600" fill="#444">1,560</text>
  <text class="name-label" x="1008" y="378" text-anchor="middle" font-family="system-ui,-apple-system,'Segoe UI',sans-serif" font-size="12" font-weight="700" fill="#333">장재훈</text>
  <text class="name-sub" x="1008" y="392" text-anchor="middle" font-family="system-ui,-apple-system,'Segoe UI',sans-serif" font-size="10" fill="#BBBBBB">@jangjaehun</text>
  <clipPath id="c17"><rect x="1044" y="340" width="44" height="20" rx="5"/></clipPath>
  <rect class="bar-bg" x="1044" y="340" width="44" height="20" rx="5" fill="#F5F5F5"/>
  <g clip-path="url(#c17)">
    <rect x="1044" y="353" width="44" height="7" fill="#FF9F43"/>
    <rect x="1044" y="340" width="44" height="13" fill="#FD79A8"/>
  </g>
  <text class="rank-label" x="1066" y="320" text-anchor="middle" font-family="system-ui,-apple-system,'Segoe UI',sans-serif" font-size="16" fill="#555">#18</text>
  <text class="cal-label" x="1066" y="334" text-anchor="middle" font-family="system-ui,-apple-system,'Segoe UI',sans-serif" font-size="10" font-weight="600" fill="#444">1,440</text>
  <text class="name-label" x="1066" y="378" text-anchor="middle" font-family="system-ui,-apple-system,'Segoe UI',sans-serif" font-size="12" font-weight="700" fill="#333">최재민</text>
  <text class="name-sub" x="1066" y="392" text-anchor="middle" font-family="system-ui,-apple-system,'Segoe UI',sans-serif" font-size="10" fill="#BBBBBB">@choijaemin</text>
  <clipPath id="c18"><rect x="1102" y="342" width="44" height="18" rx="5"/></clipPath>
  <rect class="bar-bg" x="1102" y="342" width="44" height="18" rx="5" fill="#F5F5F5"/>
  <g clip-path="url(#c18)">
    <rect x="1102" y="352" width="44" height="8" fill="#F06595"/>
    <rect x="1102" y="342" width="44" height="10" fill="#38D9A9"/>
  </g>
  <text class="rank-label" x="1124" y="322" text-anchor="middle" font-family="system-ui,-apple-system,'Segoe UI',sans-serif" font-size="16" fill="#555">#19</text>
  <text class="cal-label" x="1124" y="336" text-anchor="middle" font-family="system-ui,-apple-system,'Segoe UI',sans-serif" font-size="10" font-weight="600" fill="#444">1,320</text>
  <text class="name-label" x="1124" y="378" text-anchor="middle" font-family="system-ui,-apple-system,'Segoe UI',sans-serif" font-size="12" font-weight="700" fill="#333">김유빈</text>
  <text class="name-sub" x="1124" y="392" text-anchor="middle" font-family="system-ui,-apple-system,'Segoe UI',sans-serif" font-size="10" fill="#BBBBBB">@kimyubin</text>
  <clipPath id="c19"><rect x="1160" y="342" width="44" height="18" rx="5"/></clipPath>
  <rect class="bar-bg" x="1160" y="342" width="44" height="18" rx="5" fill="#F5F5F5"/>
  <g clip-path="url(#c19)">
    <rect x="1160" y="352" width="44" height="8" fill="#74B9FF"/>
    <rect x="1160" y="342" width="44" height="10" fill="#FDCB6E"/>
  </g>
  <text class="rank-label" x="1182" y="322" text-anchor="middle" font-family="system-ui,-apple-system,'Segoe UI',sans-serif" font-size="16" fill="#555">#20</text>
  <text class="cal-label" x="1182" y="336" text-anchor="middle" font-family="system-ui,-apple-system,'Segoe UI',sans-serif" font-size="10" font-weight="600" fill="#444">1,280</text>
  <text class="name-label" x="1182" y="378" text-anchor="middle" font-family="system-ui,-apple-system,'Segoe UI',sans-serif" font-size="12" font-weight="700" fill="#333">김준서</text>
  <text class="name-sub" x="1182" y="392" text-anchor="middle" font-family="system-ui,-apple-system,'Segoe UI',sans-serif" font-size="10" fill="#BBBBBB">@kimjunseo</text>
  <clipPath id="c20"><rect x="1218" y="345" width="44" height="15" rx="5"/></clipPath>
  <rect class="bar-bg" x="1218" y="345" width="44" height="15" rx="5" fill="#F5F5F5"/>
  <g clip-path="url(#c20)">
    <rect x="1218" y="357" width="44" height="3" fill="#E17055"/>
    <rect x="1218" y="345" width="44" height="12" fill="#FDCB6E"/>
  </g>
  <text class="rank-label" x="1240" y="325" text-anchor="middle" font-family="system-ui,-apple-system,'Segoe UI',sans-serif" font-size="16" fill="#555">#21</text>
  <text class="cal-label" x="1240" y="339" text-anchor="middle" font-family="system-ui,-apple-system,'Segoe UI',sans-serif" font-size="10" font-weight="600" fill="#444">1,100</text>
  <text class="name-label" x="1240" y="378" text-anchor="middle" font-family="system-ui,-apple-system,'Segoe UI',sans-serif" font-size="12" font-weight="700" fill="#333">장효빈</text>
  <text class="name-sub" x="1240" y="392" text-anchor="middle" font-family="system-ui,-apple-system,'Segoe UI',sans-serif" font-size="10" fill="#BBBBBB">@janghyobin</text>
  <clipPath id="c21"><rect x="1276" y="346" width="44" height="14" rx="5"/></clipPath>
  <rect class="bar-bg" x="1276" y="346" width="44" height="14" rx="5" fill="#F5F5F5"/>
  <g clip-path="url(#c21)">
    <rect x="1276" y="354" width="44" height="6" fill="#6C5CE7"/>
    <rect x="1276" y="346" width="44" height="8" fill="#00CEC9"/>
  </g>
  <text class="rank-label" x="1298" y="326" text-anchor="middle" font-family="system-ui,-apple-system,'Segoe UI',sans-serif" font-size="16" fill="#555">#22</text>
  <text class="cal-label" x="1298" y="340" text-anchor="middle" font-family="system-ui,-apple-system,'Segoe UI',sans-serif" font-size="10" font-weight="600" fill="#444">1,000</text>
  <text class="name-label" x="1298" y="378" text-anchor="middle" font-family="system-ui,-apple-system,'Segoe UI',sans-serif" font-size="12" font-weight="700" fill="#333">민지홍</text>
  <text class="name-sub" x="1298" y="392" text-anchor="middle" font-family="system-ui,-apple-system,'Segoe UI',sans-serif" font-size="10" fill="#BBBBBB">@minjihong</text>
  <clipPath id="c22"><rect x="1334" y="347" width="44" height="13" rx="5"/></clipPath>
  <rect class="bar-bg" x="1334" y="347" width="44" height="13" rx="5" fill="#F5F5F5"/>
  <g clip-path="url(#c22)">
    <rect x="1334" y="356" width="44" height="4" fill="#B2BEC3"/>
    <rect x="1334" y="348" width="44" height="8" fill="#FD79A8"/>
  </g>
  <text class="rank-label" x="1356" y="327" text-anchor="middle" font-family="system-ui,-apple-system,'Segoe UI',sans-serif" font-size="16" fill="#555">#23</text>
  <text class="cal-label" x="1356" y="341" text-anchor="middle" font-family="system-ui,-apple-system,'Segoe UI',sans-serif" font-size="10" font-weight="600" fill="#444">920</text>
  <text class="name-label" x="1356" y="378" text-anchor="middle" font-family="system-ui,-apple-system,'Segoe UI',sans-serif" font-size="12" font-weight="700" fill="#333">임세하</text>
  <text class="name-sub" x="1356" y="392" text-anchor="middle" font-family="system-ui,-apple-system,'Segoe UI',sans-serif" font-size="10" fill="#BBBBBB">@imseha</text>
  <clipPath id="c23"><rect x="1392" y="350" width="44" height="10" rx="5"/></clipPath>
  <rect class="bar-bg" x="1392" y="350" width="44" height="10" rx="5" fill="#F5F5F5"/>
  <g clip-path="url(#c23)">
    <rect x="1392" y="358" width="44" height="2" fill="#FFD93D"/>
    <rect x="1392" y="349" width="44" height="9" fill="#FF6B6B"/>
  </g>
  <text class="rank-label" x="1414" y="330" text-anchor="middle" font-family="system-ui,-apple-system,'Segoe UI',sans-serif" font-size="16" fill="#555">#24</text>
  <text class="cal-label" x="1414" y="344" text-anchor="middle" font-family="system-ui,-apple-system,'Segoe UI',sans-serif" font-size="10" font-weight="600" fill="#444">760</text>
  <text class="name-label" x="1414" y="378" text-anchor="middle" font-family="system-ui,-apple-system,'Segoe UI',sans-serif" font-size="12" font-weight="700" fill="#333">양정우</text>
  <text class="name-sub" x="1414" y="392" text-anchor="middle" font-family="system-ui,-apple-system,'Segoe UI',sans-serif" font-size="10" fill="#BBBBBB">@yangjeongwoo</text>
  <clipPath id="c24"><rect x="1450" y="350" width="44" height="10" rx="5"/></clipPath>
  <rect class="bar-bg" x="1450" y="350" width="44" height="10" rx="5" fill="#F5F5F5"/>
  <g clip-path="url(#c24)">
    <rect x="1450" y="350" width="44" height="10" fill="#6C5CE7"/>
  </g>
  <text class="rank-label" x="1472" y="330" text-anchor="middle" font-family="system-ui,-apple-system,'Segoe UI',sans-serif" font-size="16" fill="#555">#25</text>
  <text class="cal-label" x="1472" y="344" text-anchor="middle" font-family="system-ui,-apple-system,'Segoe UI',sans-serif" font-size="10" font-weight="600" fill="#444">720</text>
  <text class="name-label" x="1472" y="378" text-anchor="middle" font-family="system-ui,-apple-system,'Segoe UI',sans-serif" font-size="12" font-weight="700" fill="#333">김연수</text>
  <text class="name-sub" x="1472" y="392" text-anchor="middle" font-family="system-ui,-apple-system,'Segoe UI',sans-serif" font-size="10" fill="#BBBBBB">@kimyeonsu</text>
  <clipPath id="c25"><rect x="1508" y="351" width="44" height="9" rx="5"/></clipPath>
  <rect class="bar-bg" x="1508" y="351" width="44" height="9" rx="5" fill="#F5F5F5"/>
  <g clip-path="url(#c25)">
    <rect x="1508" y="357" width="44" height="3" fill="#4D96FF"/>
    <rect x="1508" y="351" width="44" height="6" fill="#6BCB77"/>
  </g>
  <text class="rank-label" x="1530" y="331" text-anchor="middle" font-family="system-ui,-apple-system,'Segoe UI',sans-serif" font-size="16" fill="#555">#26</text>
  <text class="cal-label" x="1530" y="345" text-anchor="middle" font-family="system-ui,-apple-system,'Segoe UI',sans-serif" font-size="10" font-weight="600" fill="#444">640</text>
  <text class="name-label" x="1530" y="378" text-anchor="middle" font-family="system-ui,-apple-system,'Segoe UI',sans-serif" font-size="12" font-weight="700" fill="#333">최우석</text>
  <text class="name-sub" x="1530" y="392" text-anchor="middle" font-family="system-ui,-apple-system,'Segoe UI',sans-serif" font-size="10" fill="#BBBBBB">@choiwooseok</text>
  <clipPath id="c26"><rect x="1566" y="353" width="44" height="7" rx="5"/></clipPath>
  <rect class="bar-bg" x="1566" y="353" width="44" height="7" rx="5" fill="#F5F5F5"/>
  <g clip-path="url(#c26)">
    <rect x="1566" y="353" width="44" height="7" fill="#A57BDB"/>
  </g>
  <text class="rank-label" x="1588" y="333" text-anchor="middle" font-family="system-ui,-apple-system,'Segoe UI',sans-serif" font-size="16" fill="#555">#27</text>
  <text class="cal-label" x="1588" y="347" text-anchor="middle" font-family="system-ui,-apple-system,'Segoe UI',sans-serif" font-size="10" font-weight="600" fill="#444">480</text>
  <text class="name-label" x="1588" y="378" text-anchor="middle" font-family="system-ui,-apple-system,'Segoe UI',sans-serif" font-size="12" font-weight="700" fill="#333">양예원</text>
  <text class="name-sub" x="1588" y="392" text-anchor="middle" font-family="system-ui,-apple-system,'Segoe UI',sans-serif" font-size="10" fill="#BBBBBB">@yangyewon</text>
  <clipPath id="c27"><rect x="1624" y="358" width="44" height="2" rx="5"/></clipPath>
  <rect class="bar-bg" x="1624" y="358" width="44" height="2" rx="5" fill="#F5F5F5"/>
  <g clip-path="url(#c27)">
    <rect x="1624" y="358" width="44" height="2" fill="#FF9F43"/>
  </g>
  <text class="rank-label" x="1646" y="338" text-anchor="middle" font-family="system-ui,-apple-system,'Segoe UI',sans-serif" font-size="16" fill="#555">#28</text>
  <text class="cal-label" x="1646" y="352" text-anchor="middle" font-family="system-ui,-apple-system,'Segoe UI',sans-serif" font-size="10" font-weight="600" fill="#444">150</text>
  <text class="name-label" x="1646" y="378" text-anchor="middle" font-family="system-ui,-apple-system,'Segoe UI',sans-serif" font-size="12" font-weight="700" fill="#333">박지현</text>
  <text class="name-sub" x="1646" y="392" text-anchor="middle" font-family="system-ui,-apple-system,'Segoe UI',sans-serif" font-size="10" fill="#BBBBBB">@parkjihyeon</text>
  <clipPath id="c28"><rect x="1682" y="358" width="44" height="2" rx="5"/></clipPath>
  <rect class="bar-bg" x="1682" y="358" width="44" height="2" rx="5" fill="#F5F5F5"/>
  <g clip-path="url(#c28)">
    <rect x="1682" y="358" width="44" height="2" fill="#38D9A9"/>
  </g>
  <text class="rank-label" x="1704" y="338" text-anchor="middle" font-family="system-ui,-apple-system,'Segoe UI',sans-serif" font-size="16" fill="#555">#29</text>
  <text class="cal-label" x="1704" y="352" text-anchor="middle" font-family="system-ui,-apple-system,'Segoe UI',sans-serif" font-size="10" font-weight="600" fill="#444">100</text>
  <text class="name-label" x="1704" y="378" text-anchor="middle" font-family="system-ui,-apple-system,'Segoe UI',sans-serif" font-size="12" font-weight="700" fill="#333">서지윤</text>
  <text class="name-sub" x="1704" y="392" text-anchor="middle" font-family="system-ui,-apple-system,'Segoe UI',sans-serif" font-size="10" fill="#BBBBBB">@seojiyun</text>
  <clipPath id="c29"><rect x="1740" y="358" width="44" height="2" rx="5"/></clipPath>
  <rect class="bar-bg" x="1740" y="358" width="44" height="2" rx="5" fill="#F5F5F5"/>
  <g clip-path="url(#c29)">
    <rect x="1740" y="358" width="44" height="2" fill="#F06595"/>
  </g>
  <text class="rank-label" x="1762" y="338" text-anchor="middle" font-family="system-ui,-apple-system,'Segoe UI',sans-serif" font-size="16" fill="#555">#30</text>
  <text class="cal-label" x="1762" y="352" text-anchor="middle" font-family="system-ui,-apple-system,'Segoe UI',sans-serif" font-size="10" font-weight="600" fill="#444">80</text>
  <text class="name-label" x="1762" y="378" text-anchor="middle" font-family="system-ui,-apple-system,'Segoe UI',sans-serif" font-size="12" font-weight="700" fill="#333">김나령</text>
  <text class="name-sub" x="1762" y="392" text-anchor="middle" font-family="system-ui,-apple-system,'Segoe UI',sans-serif" font-size="10" fill="#BBBBBB">@kimnaryeong</text>
  <rect x="58" y="414" width="11" height="11" rx="3" fill="#FF6B6B"/>
  <text class="legend-text" x="73" y="423" font-family="system-ui,-apple-system,'Segoe UI',sans-serif" font-size="11" fill="#666">프링글스</text>
  <rect x="633" y="414" width="11" height="11" rx="3" fill="#FFD93D"/>
  <text class="legend-text" x="648" y="423" font-family="system-ui,-apple-system,'Segoe UI',sans-serif" font-size="11" fill="#666">몬스터에너지</text>
  <rect x="1208" y="414" width="11" height="11" rx="3" fill="#6BCB77"/>
  <text class="legend-text" x="1223" y="423" font-family="system-ui,-apple-system,'Segoe UI',sans-serif" font-size="11" fill="#666">새우깡</text>
  <rect x="58" y="436" width="11" height="11" rx="3" fill="#4D96FF"/>
  <text class="legend-text" x="73" y="445" font-family="system-ui,-apple-system,'Segoe UI',sans-serif" font-size="11" fill="#666">초코파이</text>
  <rect x="633" y="436" width="11" height="11" rx="3" fill="#A57BDB"/>
  <text class="legend-text" x="648" y="445" font-family="system-ui,-apple-system,'Segoe UI',sans-serif" font-size="11" fill="#666">스니커즈</text>
  <rect x="1208" y="436" width="11" height="11" rx="3" fill="#FF9F43"/>
  <text class="legend-text" x="1223" y="445" font-family="system-ui,-apple-system,'Segoe UI',sans-serif" font-size="11" fill="#666">오예스</text>
  <rect x="58" y="458" width="11" height="11" rx="3" fill="#38D9A9"/>
  <text class="legend-text" x="73" y="467" font-family="system-ui,-apple-system,'Segoe UI',sans-serif" font-size="11" fill="#666">콜라</text>
  <rect x="633" y="458" width="11" height="11" rx="3" fill="#F06595"/>
  <text class="legend-text" x="648" y="467" font-family="system-ui,-apple-system,'Segoe UI',sans-serif" font-size="11" fill="#666">양파링</text>
  <rect x="1208" y="458" width="11" height="11" rx="3" fill="#74B9FF"/>
  <text class="legend-text" x="1223" y="467" font-family="system-ui,-apple-system,'Segoe UI',sans-serif" font-size="11" fill="#666">커피우유</text>
  <rect x="58" y="480" width="11" height="11" rx="3" fill="#FDCB6E"/>
  <text class="legend-text" x="73" y="489" font-family="system-ui,-apple-system,'Segoe UI',sans-serif" font-size="11" fill="#666">포카칩</text>
  <rect x="633" y="480" width="11" height="11" rx="3" fill="#E17055"/>
  <text class="legend-text" x="648" y="489" font-family="system-ui,-apple-system,'Segoe UI',sans-serif" font-size="11" fill="#666">칸쵸</text>
  <rect x="1208" y="480" width="11" height="11" rx="3" fill="#00CEC9"/>
  <text class="legend-text" x="1223" y="489" font-family="system-ui,-apple-system,'Segoe UI',sans-serif" font-size="11" fill="#666">환타</text>
  <rect x="58" y="502" width="11" height="11" rx="3" fill="#6C5CE7"/>
  <text class="legend-text" x="73" y="511" font-family="system-ui,-apple-system,'Segoe UI',sans-serif" font-size="11" fill="#666">허니버터칩</text>
  <rect x="633" y="502" width="11" height="11" rx="3" fill="#FD79A8"/>
  <text class="legend-text" x="648" y="511" font-family="system-ui,-apple-system,'Segoe UI',sans-serif" font-size="11" fill="#666">오레오</text>
  <rect x="1208" y="502" width="11" height="11" rx="3" fill="#B2BEC3"/>
  <text class="legend-text" x="1223" y="511" font-family="system-ui,-apple-system,'Segoe UI',sans-serif" font-size="11" fill="#666">핫초코</text>
  <rect x="58" y="524" width="11" height="11" rx="3" fill="#FF6B6B"/>
  <text class="legend-text" x="73" y="533" font-family="system-ui,-apple-system,'Segoe UI',sans-serif" font-size="11" fill="#666">마가렛트</text>
  <rect x="633" y="524" width="11" height="11" rx="3" fill="#FFD93D"/>
  <text class="legend-text" x="648" y="533" font-family="system-ui,-apple-system,'Segoe UI',sans-serif" font-size="11" fill="#666">요구르트</text>
  <rect x="1208" y="524" width="11" height="11" rx="3" fill="#6BCB77"/>
  <text class="legend-text" x="1223" y="533" font-family="system-ui,-apple-system,'Segoe UI',sans-serif" font-size="11" fill="#666">콘칩</text>
  <rect x="58" y="546" width="11" height="11" rx="3" fill="#4D96FF"/>
  <text class="legend-text" x="73" y="555" font-family="system-ui,-apple-system,'Segoe UI',sans-serif" font-size="11" fill="#666">게토레이</text>
  <rect x="633" y="546" width="11" height="11" rx="3" fill="#A57BDB"/>
  <text class="legend-text" x="648" y="555" font-family="system-ui,-apple-system,'Segoe UI',sans-serif" font-size="11" fill="#666">감자깡</text>
  <rect x="1208" y="546" width="11" height="11" rx="3" fill="#FF9F43"/>
  <text class="legend-text" x="1223" y="555" font-family="system-ui,-apple-system,'Segoe UI',sans-serif" font-size="11" fill="#666">웰치스</text>
  <rect x="58" y="568" width="11" height="11" rx="3" fill="#38D9A9"/>
  <text class="legend-text" x="73" y="577" font-family="system-ui,-apple-system,'Segoe UI',sans-serif" font-size="11" fill="#666">버터와플</text>
  <rect x="633" y="568" width="11" height="11" rx="3" fill="#F06595"/>
  <text class="legend-text" x="648" y="577" font-family="system-ui,-apple-system,'Segoe UI',sans-serif" font-size="11" fill="#666">바나나우유</text>
  <rect x="1208" y="568" width="11" height="11" rx="3" fill="#74B9FF"/>
  <text class="legend-text" x="1223" y="577" font-family="system-ui,-apple-system,'Segoe UI',sans-serif" font-size="11" fill="#666">쿠크다스</text>
  <rect x="58" y="590" width="11" height="11" rx="3" fill="#FDCB6E"/>
  <text class="legend-text" x="73" y="599" font-family="system-ui,-apple-system,'Segoe UI',sans-serif" font-size="11" fill="#666">데미소다</text>
  <rect x="633" y="590" width="11" height="11" rx="3" fill="#E17055"/>
  <text class="legend-text" x="648" y="599" font-family="system-ui,-apple-system,'Segoe UI',sans-serif" font-size="11" fill="#666">홈런볼</text>
  <rect x="1208" y="590" width="11" height="11" rx="3" fill="#00CEC9"/>
  <text class="legend-text" x="1223" y="599" font-family="system-ui,-apple-system,'Segoe UI',sans-serif" font-size="11" fill="#666">맥콜</text>
  <rect x="58" y="612" width="11" height="11" rx="3" fill="#6C5CE7"/>
  <text class="legend-text" x="73" y="621" font-family="system-ui,-apple-system,'Segoe UI',sans-serif" font-size="11" fill="#666">꼬깔콘</text>
  <rect x="633" y="612" width="11" height="11" rx="3" fill="#FD79A8"/>
  <text class="legend-text" x="648" y="621" font-family="system-ui,-apple-system,'Segoe UI',sans-serif" font-size="11" fill="#666">밀키스</text>
  <rect x="1208" y="612" width="11" height="11" rx="3" fill="#B2BEC3"/>
  <text class="legend-text" x="1223" y="621" font-family="system-ui,-apple-system,'Segoe UI',sans-serif" font-size="11" fill="#666">칙촉</text>
  <rect x="58" y="634" width="11" height="11" rx="3" fill="#FF6B6B"/>
  <text class="legend-text" x="73" y="643" font-family="system-ui,-apple-system,'Segoe UI',sans-serif" font-size="11" fill="#666">딸기우유</text>
  <rect x="633" y="634" width="11" height="11" rx="3" fill="#FFD93D"/>
  <text class="legend-text" x="648" y="643" font-family="system-ui,-apple-system,'Segoe UI',sans-serif" font-size="11" fill="#666">에이스</text>
  <rect x="1208" y="634" width="11" height="11" rx="3" fill="#6BCB77"/>
  <text class="legend-text" x="1223" y="643" font-family="system-ui,-apple-system,'Segoe UI',sans-serif" font-size="11" fill="#666">카페라떼</text>
  <rect x="58" y="656" width="11" height="11" rx="3" fill="#4D96FF"/>
  <text class="legend-text" x="73" y="665" font-family="system-ui,-apple-system,'Segoe UI',sans-serif" font-size="11" fill="#666">맛동산</text>
  <rect x="633" y="656" width="11" height="11" rx="3" fill="#A57BDB"/>
  <text class="legend-text" x="648" y="665" font-family="system-ui,-apple-system,'Segoe UI',sans-serif" font-size="11" fill="#666">코코팜</text>
  <rect x="1208" y="656" width="11" height="11" rx="3" fill="#FF9F43"/>
  <text class="legend-text" x="1223" y="665" font-family="system-ui,-apple-system,'Segoe UI',sans-serif" font-size="11" fill="#666">초코우유</text>
  <rect x="58" y="678" width="11" height="11" rx="3" fill="#38D9A9"/>
  <text class="legend-text" x="73" y="687" font-family="system-ui,-apple-system,'Segoe UI',sans-serif" font-size="11" fill="#666">고래밥</text>
  <rect x="633" y="678" width="11" height="11" rx="3" fill="#F06595"/>
  <text class="legend-text" x="648" y="687" font-family="system-ui,-apple-system,'Segoe UI',sans-serif" font-size="11" fill="#666">비타500</text>
  <rect x="1208" y="678" width="11" height="11" rx="3" fill="#74B9FF"/>
  <text class="legend-text" x="1223" y="687" font-family="system-ui,-apple-system,'Segoe UI',sans-serif" font-size="11" fill="#666">사이다</text>
  <rect x="58" y="700" width="11" height="11" rx="3" fill="#FDCB6E"/>
  <text class="legend-text" x="73" y="709" font-family="system-ui,-apple-system,'Segoe UI',sans-serif" font-size="11" fill="#666">자갈치</text>
  <rect x="633" y="700" width="11" height="11" rx="3" fill="#E17055"/>
  <text class="legend-text" x="648" y="709" font-family="system-ui,-apple-system,'Segoe UI',sans-serif" font-size="11" fill="#666">레몬에이드</text>
  <rect x="1208" y="700" width="11" height="11" rx="3" fill="#00CEC9"/>
  <text class="legend-text" x="1223" y="709" font-family="system-ui,-apple-system,'Segoe UI',sans-serif" font-size="11" fill="#666">빼빼로</text>
  <rect x="58" y="722" width="11" height="11" rx="3" fill="#6C5CE7"/>
  <text class="legend-text" x="73" y="731" font-family="system-ui,-apple-system,'Segoe UI',sans-serif" font-size="11" fill="#666">핫식스</text>
  <rect x="633" y="722" width="11" height="11" rx="3" fill="#FD79A8"/>
  <text class="legend-text" x="648" y="731" font-family="system-ui,-apple-system,'Segoe UI',sans-serif" font-size="11" fill="#666">다이제</text>
  <rect x="1208" y="722" width="11" height="11" rx="3" fill="#B2BEC3"/>
  <text class="legend-text" x="1223" y="731" font-family="system-ui,-apple-system,'Segoe UI',sans-serif" font-size="11" fill="#666">아이스티</text>
  <rect x="58" y="744" width="11" height="11" rx="3" fill="#FF6B6B"/>
  <text class="legend-text" x="73" y="753" font-family="system-ui,-apple-system,'Segoe UI',sans-serif" font-size="11" fill="#666">치토스</text>
  <rect x="633" y="744" width="11" height="11" rx="3" fill="#FFD93D"/>
  <text class="legend-text" x="648" y="753" font-family="system-ui,-apple-system,'Segoe UI',sans-serif" font-size="11" fill="#666">파워에이드</text>
  <rect x="1208" y="744" width="11" height="11" rx="3" fill="#6BCB77"/>
  <text class="legend-text" x="1223" y="753" font-family="system-ui,-apple-system,'Segoe UI',sans-serif" font-size="11" fill="#666">썬칩</text>
  <rect x="58" y="766" width="11" height="11" rx="3" fill="#4D96FF"/>
  <text class="legend-text" x="73" y="775" font-family="system-ui,-apple-system,'Segoe UI',sans-serif" font-size="11" fill="#666">토레타</text>
  <rect x="633" y="766" width="11" height="11" rx="3" fill="#A57BDB"/>
  <text class="legend-text" x="648" y="775" font-family="system-ui,-apple-system,'Segoe UI',sans-serif" font-size="11" fill="#666">초코송이</text>
  <rect x="1208" y="766" width="11" height="11" rx="3" fill="#FF9F43"/>
  <text class="legend-text" x="1223" y="775" font-family="system-ui,-apple-system,'Segoe UI',sans-serif" font-size="11" fill="#666">브라우니</text>
  <rect x="58" y="788" width="11" height="11" rx="3" fill="#38D9A9"/>
  <text class="legend-text" x="73" y="797" font-family="system-ui,-apple-system,'Segoe UI',sans-serif" font-size="11" fill="#666">마카롱</text>
  <rect x="633" y="788" width="11" height="11" rx="3" fill="#F06595"/>
  <text class="legend-text" x="648" y="797" font-family="system-ui,-apple-system,'Segoe UI',sans-serif" font-size="11" fill="#666">마이쮸</text>
</svg>
