<svg xmlns="http://www.w3.org/2000/svg" width="480" height="3004" viewBox="0 0 480 3004">
  <style>
  @media (prefers-color-scheme: dark) {
    .bg { fill: #1A1A2E !important; }
    .border { stroke: #333 !important; }
    .title { fill: #E8E8E8 !important; }
    .subtitle { fill: #888 !important; }
    .grid { stroke: #333 !important; }
    .grid-base { stroke: #444 !important; }
    .axis-label { fill: #666 !important; }
    .bar-bg { fill: #2A2A3E !important; }
    .rank-label { fill: #CCC !important; }
    .cal-label { fill: #DDD !important; }
    .name-label { fill: #E8E8E8 !important; }
    .name-sub { fill: #666 !important; }
    .legend-text { fill: #AAA !important; }
    .inv-row-alt { fill: #16213E !important; }
    .inv-name { fill: #E8E8E8 !important; }
    .inv-sub { fill: #666 !important; }
    .inv-bar-bg { fill: #333 !important; }
    .inv-pct { fill: #888 !important; }
  }
</style>
  <rect class="bg" width="480" height="3004" fill="#FFFFFF"/>
  <rect class="border" width="480" height="3004" rx="12" fill="none" stroke="#E8E8E8" stroke-width="1"/>
  <text class="title" x="240" y="30" text-anchor="middle" font-family="system-ui,-apple-system,'Segoe UI',sans-serif" font-size="17" font-weight="700" fill="#1A1A2E">&#x1F3EA; 탕비실 현황</text>
  <text class="subtitle" x="240" y="52" text-anchor="middle" font-family="system-ui,-apple-system,'Segoe UI',sans-serif" font-size="12" fill="#999">총 221개 남음 &#160;·&#160; 총 322개 기여</text>
  <text class="inv-name" x="24" y="95" font-family="system-ui,-apple-system,'Segoe UI',sans-serif" font-size="14" font-weight="700" fill="#222">새우깡</text>
  <text class="inv-sub" x="24" y="112" font-family="system-ui,-apple-system,'Segoe UI',sans-serif" font-size="11" fill="#AAAAAA">30/40봉지 &#160;·&#160; 10개 섭취</text>
  <rect class="inv-bar-bg" x="200" y="92" width="216" height="12" rx="6" fill="#EEEEEE"/>
  <rect x="200" y="92" width="162" height="12" rx="6" fill="#6BCB77"/>
  <text class="inv-pct" x="422" y="102" font-family="system-ui,-apple-system,'Segoe UI',sans-serif" font-size="11" fill="#999">75%</text>
  <rect class="inv-row-alt" x="0" y="126" width="480" height="54" fill="#F9F9F9"/>
  <text class="inv-name" x="24" y="149" font-family="system-ui,-apple-system,'Segoe UI',sans-serif" font-size="14" font-weight="700" fill="#222">콜라</text>
  <text class="inv-sub" x="24" y="166" font-family="system-ui,-apple-system,'Segoe UI',sans-serif" font-size="11" fill="#AAAAAA">17/28캔 &#160;·&#160; 11개 섭취</text>
  <rect class="inv-bar-bg" x="200" y="146" width="216" height="12" rx="6" fill="#EEEEEE"/>
  <rect x="200" y="146" width="131" height="12" rx="6" fill="#FFD93D"/>
  <text class="inv-pct" x="422" y="156" font-family="system-ui,-apple-system,'Segoe UI',sans-serif" font-size="11" fill="#999">61%</text>
  <text class="inv-name" x="24" y="203" font-family="system-ui,-apple-system,'Segoe UI',sans-serif" font-size="14" font-weight="700" fill="#222">스니커즈</text>
  <text class="inv-sub" x="24" y="220" font-family="system-ui,-apple-system,'Segoe UI',sans-serif" font-size="11" fill="#AAAAAA">15/23개 &#160;·&#160; 8개 섭취</text>
  <rect class="inv-bar-bg" x="200" y="200" width="216" height="12" rx="6" fill="#EEEEEE"/>
  <rect x="200" y="200" width="141" height="12" rx="6" fill="#FFD93D"/>
  <text class="inv-pct" x="422" y="210" font-family="system-ui,-apple-system,'Segoe UI',sans-serif" font-size="11" fill="#999">65%</text>
  <rect class="inv-row-alt" x="0" y="234" width="480" height="54" fill="#F9F9F9"/>
  <text class="inv-name" x="24" y="257" font-family="system-ui,-apple-system,'Segoe UI',sans-serif" font-size="14" font-weight="700" fill="#222">몬스터에너지</text>
  <text class="inv-sub" x="24" y="274" font-family="system-ui,-apple-system,'Segoe UI',sans-serif" font-size="11" fill="#AAAAAA">12/20캔 &#160;·&#160; 8개 섭취</text>
  <rect class="inv-bar-bg" x="200" y="254" width="216" height="12" rx="6" fill="#EEEEEE"/>
  <rect x="200" y="254" width="130" height="12" rx="6" fill="#FFD93D"/>
  <text class="inv-pct" x="422" y="264" font-family="system-ui,-apple-system,'Segoe UI',sans-serif" font-size="11" fill="#999">60%</text>
  <text class="inv-name" x="24" y="311" font-family="system-ui,-apple-system,'Segoe UI',sans-serif" font-size="14" font-weight="700" fill="#222">커피우유</text>
  <text class="inv-sub" x="24" y="328" font-family="system-ui,-apple-system,'Segoe UI',sans-serif" font-size="11" fill="#AAAAAA">10/10개 &#160;·&#160; 0개 섭취</text>
  <rect class="inv-bar-bg" x="200" y="308" width="216" height="12" rx="6" fill="#EEEEEE"/>
  <rect x="200" y="308" width="216" height="12" rx="6" fill="#6BCB77"/>
  <text class="inv-pct" x="422" y="318" font-family="system-ui,-apple-system,'Segoe UI',sans-serif" font-size="11" fill="#999">100%</text>
  <rect class="inv-row-alt" x="0" y="342" width="480" height="54" fill="#F9F9F9"/>
  <text class="inv-name" x="24" y="365" font-family="system-ui,-apple-system,'Segoe UI',sans-serif" font-size="14" font-weight="700" fill="#222">양파링</text>
  <text class="inv-sub" x="24" y="382" font-family="system-ui,-apple-system,'Segoe UI',sans-serif" font-size="11" fill="#AAAAAA">8/12봉지 &#160;·&#160; 4개 섭취</text>
  <rect class="inv-bar-bg" x="200" y="362" width="216" height="12" rx="6" fill="#EEEEEE"/>
  <rect x="200" y="362" width="144" height="12" rx="6" fill="#6BCB77"/>
  <text class="inv-pct" x="422" y="372" font-family="system-ui,-apple-system,'Segoe UI',sans-serif" font-size="11" fill="#999">67%</text>
  <text class="inv-name" x="24" y="419" font-family="system-ui,-apple-system,'Segoe UI',sans-serif" font-size="14" font-weight="700" fill="#222">초코파이</text>
  <text class="inv-sub" x="24" y="436" font-family="system-ui,-apple-system,'Segoe UI',sans-serif" font-size="11" fill="#AAAAAA">7/7박스 &#160;·&#160; 0개 섭취</text>
  <rect class="inv-bar-bg" x="200" y="416" width="216" height="12" rx="6" fill="#EEEEEE"/>
  <rect x="200" y="416" width="216" height="12" rx="6" fill="#6BCB77"/>
  <text class="inv-pct" x="422" y="426" font-family="system-ui,-apple-system,'Segoe UI',sans-serif" font-size="11" fill="#999">100%</text>
  <rect class="inv-row-alt" x="0" y="450" width="480" height="54" fill="#F9F9F9"/>
  <text class="inv-name" x="24" y="473" font-family="system-ui,-apple-system,'Segoe UI',sans-serif" font-size="14" font-weight="700" fill="#222">프링글스</text>
  <text class="inv-sub" x="24" y="490" font-family="system-ui,-apple-system,'Segoe UI',sans-serif" font-size="11" fill="#AAAAAA">7/10개 &#160;·&#160; 3개 섭취</text>
  <rect class="inv-bar-bg" x="200" y="470" width="216" height="12" rx="6" fill="#EEEEEE"/>
  <rect x="200" y="470" width="151" height="12" rx="6" fill="#6BCB77"/>
  <text class="inv-pct" x="422" y="480" font-family="system-ui,-apple-system,'Segoe UI',sans-serif" font-size="11" fill="#999">70%</text>
  <text class="inv-name" x="24" y="527" font-family="system-ui,-apple-system,'Segoe UI',sans-serif" font-size="14" font-weight="700" fill="#222">환타</text>
  <text class="inv-sub" x="24" y="544" font-family="system-ui,-apple-system,'Segoe UI',sans-serif" font-size="11" fill="#AAAAAA">6/10캔 &#160;·&#160; 4개 섭취</text>
  <rect class="inv-bar-bg" x="200" y="524" width="216" height="12" rx="6" fill="#EEEEEE"/>
  <rect x="200" y="524" width="130" height="12" rx="6" fill="#FFD93D"/>
  <text class="inv-pct" x="422" y="534" font-family="system-ui,-apple-system,'Segoe UI',sans-serif" font-size="11" fill="#999">60%</text>
  <rect class="inv-row-alt" x="0" y="558" width="480" height="54" fill="#F9F9F9"/>
  <text class="inv-name" x="24" y="581" font-family="system-ui,-apple-system,'Segoe UI',sans-serif" font-size="14" font-weight="700" fill="#222">포카칩</text>
  <text class="inv-sub" x="24" y="598" font-family="system-ui,-apple-system,'Segoe UI',sans-serif" font-size="11" fill="#AAAAAA">6/9봉지 &#160;·&#160; 3개 섭취</text>
  <rect class="inv-bar-bg" x="200" y="578" width="216" height="12" rx="6" fill="#EEEEEE"/>
  <rect x="200" y="578" width="144" height="12" rx="6" fill="#6BCB77"/>
  <text class="inv-pct" x="422" y="588" font-family="system-ui,-apple-system,'Segoe UI',sans-serif" font-size="11" fill="#999">67%</text>
  <text class="inv-name" x="24" y="635" font-family="system-ui,-apple-system,'Segoe UI',sans-serif" font-size="14" font-weight="700" fill="#222">오레오</text>
  <text class="inv-sub" x="24" y="652" font-family="system-ui,-apple-system,'Segoe UI',sans-serif" font-size="11" fill="#AAAAAA">5/6봉지 &#160;·&#160; 1개 섭취</text>
  <rect class="inv-bar-bg" x="200" y="632" width="216" height="12" rx="6" fill="#EEEEEE"/>
  <rect x="200" y="632" width="180" height="12" rx="6" fill="#6BCB77"/>
  <text class="inv-pct" x="422" y="642" font-family="system-ui,-apple-system,'Segoe UI',sans-serif" font-size="11" fill="#999">83%</text>
  <rect class="inv-row-alt" x="0" y="666" width="480" height="54" fill="#F9F9F9"/>
  <text class="inv-name" x="24" y="689" font-family="system-ui,-apple-system,'Segoe UI',sans-serif" font-size="14" font-weight="700" fill="#222">칸쵸</text>
  <text class="inv-sub" x="24" y="706" font-family="system-ui,-apple-system,'Segoe UI',sans-serif" font-size="11" fill="#AAAAAA">5/8봉지 &#160;·&#160; 3개 섭취</text>
  <rect class="inv-bar-bg" x="200" y="686" width="216" height="12" rx="6" fill="#EEEEEE"/>
  <rect x="200" y="686" width="135" height="12" rx="6" fill="#FFD93D"/>
  <text class="inv-pct" x="422" y="696" font-family="system-ui,-apple-system,'Segoe UI',sans-serif" font-size="11" fill="#999">62%</text>
  <text class="inv-name" x="24" y="743" font-family="system-ui,-apple-system,'Segoe UI',sans-serif" font-size="14" font-weight="700" fill="#222">허니버터칩</text>
  <text class="inv-sub" x="24" y="760" font-family="system-ui,-apple-system,'Segoe UI',sans-serif" font-size="11" fill="#AAAAAA">5/8봉지 &#160;·&#160; 3개 섭취</text>
  <rect class="inv-bar-bg" x="200" y="740" width="216" height="12" rx="6" fill="#EEEEEE"/>
  <rect x="200" y="740" width="135" height="12" rx="6" fill="#FFD93D"/>
  <text class="inv-pct" x="422" y="750" font-family="system-ui,-apple-system,'Segoe UI',sans-serif" font-size="11" fill="#999">62%</text>
  <rect class="inv-row-alt" x="0" y="774" width="480" height="54" fill="#F9F9F9"/>
  <text class="inv-name" x="24" y="797" font-family="system-ui,-apple-system,'Segoe UI',sans-serif" font-size="14" font-weight="700" fill="#222">감자깡</text>
  <text class="inv-sub" x="24" y="814" font-family="system-ui,-apple-system,'Segoe UI',sans-serif" font-size="11" fill="#AAAAAA">4/6봉지 &#160;·&#160; 2개 섭취</text>
  <rect class="inv-bar-bg" x="200" y="794" width="216" height="12" rx="6" fill="#EEEEEE"/>
  <rect x="200" y="794" width="144" height="12" rx="6" fill="#6BCB77"/>
  <text class="inv-pct" x="422" y="804" font-family="system-ui,-apple-system,'Segoe UI',sans-serif" font-size="11" fill="#999">67%</text>
  <text class="inv-name" x="24" y="851" font-family="system-ui,-apple-system,'Segoe UI',sans-serif" font-size="14" font-weight="700" fill="#222">콘칩</text>
  <text class="inv-sub" x="24" y="868" font-family="system-ui,-apple-system,'Segoe UI',sans-serif" font-size="11" fill="#AAAAAA">3/4봉지 &#160;·&#160; 1개 섭취</text>
  <rect class="inv-bar-bg" x="200" y="848" width="216" height="12" rx="6" fill="#EEEEEE"/>
  <rect x="200" y="848" width="162" height="12" rx="6" fill="#6BCB77"/>
  <text class="inv-pct" x="422" y="858" font-family="system-ui,-apple-system,'Segoe UI',sans-serif" font-size="11" fill="#999">75%</text>
  <rect class="inv-row-alt" x="0" y="882" width="480" height="54" fill="#F9F9F9"/>
  <text class="inv-name" x="24" y="905" font-family="system-ui,-apple-system,'Segoe UI',sans-serif" font-size="14" font-weight="700" fill="#222">딸기우유</text>
  <text class="inv-sub" x="24" y="922" font-family="system-ui,-apple-system,'Segoe UI',sans-serif" font-size="11" fill="#AAAAAA">3/4개 &#160;·&#160; 1개 섭취</text>
  <rect class="inv-bar-bg" x="200" y="902" width="216" height="12" rx="6" fill="#EEEEEE"/>
  <rect x="200" y="902" width="162" height="12" rx="6" fill="#6BCB77"/>
  <text class="inv-pct" x="422" y="912" font-family="system-ui,-apple-system,'Segoe UI',sans-serif" font-size="11" fill="#999">75%</text>
  <text class="inv-name" x="24" y="959" font-family="system-ui,-apple-system,'Segoe UI',sans-serif" font-size="14" font-weight="700" fill="#222">코코팜</text>
  <text class="inv-sub" x="24" y="976" font-family="system-ui,-apple-system,'Segoe UI',sans-serif" font-size="11" fill="#AAAAAA">3/5캔 &#160;·&#160; 2개 섭취</text>
  <rect class="inv-bar-bg" x="200" y="956" width="216" height="12" rx="6" fill="#EEEEEE"/>
  <rect x="200" y="956" width="130" height="12" rx="6" fill="#FFD93D"/>
  <text class="inv-pct" x="422" y="966" font-family="system-ui,-apple-system,'Segoe UI',sans-serif" font-size="11" fill="#999">60%</text>
  <rect class="inv-row-alt" x="0" y="990" width="480" height="54" fill="#F9F9F9"/>
  <text class="inv-name" x="24" y="1013" font-family="system-ui,-apple-system,'Segoe UI',sans-serif" font-size="14" font-weight="700" fill="#222">꼬깔콘</text>
  <text class="inv-sub" x="24" y="1030" font-family="system-ui,-apple-system,'Segoe UI',sans-serif" font-size="11" fill="#AAAAAA">3/4봉지 &#160;·&#160; 1개 섭취</text>
  <rect class="inv-bar-bg" x="200" y="1010" width="216" height="12" rx="6" fill="#EEEEEE"/>
  <rect x="200" y="1010" width="162" height="12" rx="6" fill="#6BCB77"/>
  <text class="inv-pct" x="422" y="1020" font-family="system-ui,-apple-system,'Segoe UI',sans-serif" font-size="11" fill="#999">75%</text>
  <text class="inv-name" x="24" y="1067" font-family="system-ui,-apple-system,'Segoe UI',sans-serif" font-size="14" font-weight="700" fill="#222">사이다</text>
  <text class="inv-sub" x="24" y="1084" font-family="system-ui,-apple-system,'Segoe UI',sans-serif" font-size="11" fill="#AAAAAA">3/4캔 &#160;·&#160; 1개 섭취</text>
  <rect class="inv-bar-bg" x="200" y="1064" width="216" height="12" rx="6" fill="#EEEEEE"/>
  <rect x="200" y="1064" width="162" height="12" rx="6" fill="#6BCB77"/>
  <text class="inv-pct" x="422" y="1074" font-family="system-ui,-apple-system,'Segoe UI',sans-serif" font-size="11" fill="#999">75%</text>
  <rect class="inv-row-alt" x="0" y="1098" width="480" height="54" fill="#F9F9F9"/>
  <text class="inv-name" x="24" y="1121" font-family="system-ui,-apple-system,'Segoe UI',sans-serif" font-size="14" font-weight="700" fill="#222">비타500</text>
  <text class="inv-sub" x="24" y="1138" font-family="system-ui,-apple-system,'Segoe UI',sans-serif" font-size="11" fill="#AAAAAA">3/6개 &#160;·&#160; 3개 섭취</text>
  <rect class="inv-bar-bg" x="200" y="1118" width="216" height="12" rx="6" fill="#EEEEEE"/>
  <rect x="200" y="1118" width="108" height="12" rx="6" fill="#FFD93D"/>
  <text class="inv-pct" x="422" y="1128" font-family="system-ui,-apple-system,'Segoe UI',sans-serif" font-size="11" fill="#999">50%</text>
  <text class="inv-name" x="24" y="1175" font-family="system-ui,-apple-system,'Segoe UI',sans-serif" font-size="14" font-weight="700" fill="#222">마가렛트</text>
  <text class="inv-sub" x="24" y="1192" font-family="system-ui,-apple-system,'Segoe UI',sans-serif" font-size="11" fill="#AAAAAA">3/4봉지 &#160;·&#160; 1개 섭취</text>
  <rect class="inv-bar-bg" x="200" y="1172" width="216" height="12" rx="6" fill="#EEEEEE"/>
  <rect x="200" y="1172" width="162" height="12" rx="6" fill="#6BCB77"/>
  <text class="inv-pct" x="422" y="1182" font-family="system-ui,-apple-system,'Segoe UI',sans-serif" font-size="11" fill="#999">75%</text>
  <rect class="inv-row-alt" x="0" y="1206" width="480" height="54" fill="#F9F9F9"/>
  <text class="inv-name" x="24" y="1229" font-family="system-ui,-apple-system,'Segoe UI',sans-serif" font-size="14" font-weight="700" fill="#222">요구르트</text>
  <text class="inv-sub" x="24" y="1246" font-family="system-ui,-apple-system,'Segoe UI',sans-serif" font-size="11" fill="#AAAAAA">3/5개 &#160;·&#160; 2개 섭취</text>
  <rect class="inv-bar-bg" x="200" y="1226" width="216" height="12" rx="6" fill="#EEEEEE"/>
  <rect x="200" y="1226" width="130" height="12" rx="6" fill="#FFD93D"/>
  <text class="inv-pct" x="422" y="1236" font-family="system-ui,-apple-system,'Segoe UI',sans-serif" font-size="11" fill="#999">60%</text>
  <text class="inv-name" x="24" y="1283" font-family="system-ui,-apple-system,'Segoe UI',sans-serif" font-size="14" font-weight="700" fill="#222">바나나우유</text>
  <text class="inv-sub" x="24" y="1300" font-family="system-ui,-apple-system,'Segoe UI',sans-serif" font-size="11" fill="#AAAAAA">3/6개 &#160;·&#160; 3개 섭취</text>
  <rect class="inv-bar-bg" x="200" y="1280" width="216" height="12" rx="6" fill="#EEEEEE"/>
  <rect x="200" y="1280" width="108" height="12" rx="6" fill="#FFD93D"/>
  <text class="inv-pct" x="422" y="1290" font-family="system-ui,-apple-system,'Segoe UI',sans-serif" font-size="11" fill="#999">50%</text>
  <rect class="inv-row-alt" x="0" y="1314" width="480" height="54" fill="#F9F9F9"/>
  <text class="inv-name" x="24" y="1337" font-family="system-ui,-apple-system,'Segoe UI',sans-serif" font-size="14" font-weight="700" fill="#222">데미소다</text>
  <text class="inv-sub" x="24" y="1354" font-family="system-ui,-apple-system,'Segoe UI',sans-serif" font-size="11" fill="#AAAAAA">3/5캔 &#160;·&#160; 2개 섭취</text>
  <rect class="inv-bar-bg" x="200" y="1334" width="216" height="12" rx="6" fill="#EEEEEE"/>
  <rect x="200" y="1334" width="130" height="12" rx="6" fill="#FFD93D"/>
  <text class="inv-pct" x="422" y="1344" font-family="system-ui,-apple-system,'Segoe UI',sans-serif" font-size="11" fill="#999">60%</text>
  <text class="inv-name" x="24" y="1391" font-family="system-ui,-apple-system,'Segoe UI',sans-serif" font-size="14" font-weight="700" fill="#222">빼빼로</text>
  <text class="inv-sub" x="24" y="1408" font-family="system-ui,-apple-system,'Segoe UI',sans-serif" font-size="11" fill="#AAAAAA">3/5개 &#160;·&#160; 2개 섭취</text>
  <rect class="inv-bar-bg" x="200" y="1388" width="216" height="12" rx="6" fill="#EEEEEE"/>
  <rect x="200" y="1388" width="130" height="12" rx="6" fill="#FFD93D"/>
  <text class="inv-pct" x="422" y="1398" font-family="system-ui,-apple-system,'Segoe UI',sans-serif" font-size="11" fill="#999">60%</text>
  <rect class="inv-row-alt" x="0" y="1422" width="480" height="54" fill="#F9F9F9"/>
  <text class="inv-name" x="24" y="1445" font-family="system-ui,-apple-system,'Segoe UI',sans-serif" font-size="14" font-weight="700" fill="#222">오예스</text>
  <text class="inv-sub" x="24" y="1462" font-family="system-ui,-apple-system,'Segoe UI',sans-serif" font-size="11" fill="#AAAAAA">3/3박스 &#160;·&#160; 0개 섭취</text>
  <rect class="inv-bar-bg" x="200" y="1442" width="216" height="12" rx="6" fill="#EEEEEE"/>
  <rect x="200" y="1442" width="216" height="12" rx="6" fill="#6BCB77"/>
  <text class="inv-pct" x="422" y="1452" font-family="system-ui,-apple-system,'Segoe UI',sans-serif" font-size="11" fill="#999">100%</text>
  <text class="inv-name" x="24" y="1499" font-family="system-ui,-apple-system,'Segoe UI',sans-serif" font-size="14" font-weight="700" fill="#222">게토레이</text>
  <text class="inv-sub" x="24" y="1516" font-family="system-ui,-apple-system,'Segoe UI',sans-serif" font-size="11" fill="#AAAAAA">2/3캔 &#160;·&#160; 1개 섭취</text>
  <rect class="inv-bar-bg" x="200" y="1496" width="216" height="12" rx="6" fill="#EEEEEE"/>
  <rect x="200" y="1496" width="144" height="12" rx="6" fill="#6BCB77"/>
  <text class="inv-pct" x="422" y="1506" font-family="system-ui,-apple-system,'Segoe UI',sans-serif" font-size="11" fill="#999">67%</text>
  <rect class="inv-row-alt" x="0" y="1530" width="480" height="54" fill="#F9F9F9"/>
  <text class="inv-name" x="24" y="1553" font-family="system-ui,-apple-system,'Segoe UI',sans-serif" font-size="14" font-weight="700" fill="#222">핫초코</text>
  <text class="inv-sub" x="24" y="1570" font-family="system-ui,-apple-system,'Segoe UI',sans-serif" font-size="11" fill="#AAAAAA">2/3잔 &#160;·&#160; 1개 섭취</text>
  <rect class="inv-bar-bg" x="200" y="1550" width="216" height="12" rx="6" fill="#EEEEEE"/>
  <rect x="200" y="1550" width="144" height="12" rx="6" fill="#6BCB77"/>
  <text class="inv-pct" x="422" y="1560" font-family="system-ui,-apple-system,'Segoe UI',sans-serif" font-size="11" fill="#999">67%</text>
  <text class="inv-name" x="24" y="1607" font-family="system-ui,-apple-system,'Segoe UI',sans-serif" font-size="14" font-weight="700" fill="#222">초코우유</text>
  <text class="inv-sub" x="24" y="1624" font-family="system-ui,-apple-system,'Segoe UI',sans-serif" font-size="11" fill="#AAAAAA">2/4개 &#160;·&#160; 2개 섭취</text>
  <rect class="inv-bar-bg" x="200" y="1604" width="216" height="12" rx="6" fill="#EEEEEE"/>
  <rect x="200" y="1604" width="108" height="12" rx="6" fill="#FFD93D"/>
  <text class="inv-pct" x="422" y="1614" font-family="system-ui,-apple-system,'Segoe UI',sans-serif" font-size="11" fill="#999">50%</text>
  <rect class="inv-row-alt" x="0" y="1638" width="480" height="54" fill="#F9F9F9"/>
  <text class="inv-name" x="24" y="1661" font-family="system-ui,-apple-system,'Segoe UI',sans-serif" font-size="14" font-weight="700" fill="#222">썬칩</text>
  <text class="inv-sub" x="24" y="1678" font-family="system-ui,-apple-system,'Segoe UI',sans-serif" font-size="11" fill="#AAAAAA">2/2봉지 &#160;·&#160; 0개 섭취</text>
  <rect class="inv-bar-bg" x="200" y="1658" width="216" height="12" rx="6" fill="#EEEEEE"/>
  <rect x="200" y="1658" width="216" height="12" rx="6" fill="#6BCB77"/>
  <text class="inv-pct" x="422" y="1668" font-family="system-ui,-apple-system,'Segoe UI',sans-serif" font-size="11" fill="#999">100%</text>
  <text class="inv-name" x="24" y="1715" font-family="system-ui,-apple-system,'Segoe UI',sans-serif" font-size="14" font-weight="700" fill="#222">토레타</text>
  <text class="inv-sub" x="24" y="1732" font-family="system-ui,-apple-system,'Segoe UI',sans-serif" font-size="11" fill="#AAAAAA">2/4캔 &#160;·&#160; 2개 섭취</text>
  <rect class="inv-bar-bg" x="200" y="1712" width="216" height="12" rx="6" fill="#EEEEEE"/>
  <rect x="200" y="1712" width="108" height="12" rx="6" fill="#FFD93D"/>
  <text class="inv-pct" x="422" y="1722" font-family="system-ui,-apple-system,'Segoe UI',sans-serif" font-size="11" fill="#999">50%</text>
  <rect class="inv-row-alt" x="0" y="1746" width="480" height="54" fill="#F9F9F9"/>
  <text class="inv-name" x="24" y="1769" font-family="system-ui,-apple-system,'Segoe UI',sans-serif" font-size="14" font-weight="700" fill="#222">카페라떼</text>
  <text class="inv-sub" x="24" y="1786" font-family="system-ui,-apple-system,'Segoe UI',sans-serif" font-size="11" fill="#AAAAAA">2/4잔 &#160;·&#160; 2개 섭취</text>
  <rect class="inv-bar-bg" x="200" y="1766" width="216" height="12" rx="6" fill="#EEEEEE"/>
  <rect x="200" y="1766" width="108" height="12" rx="6" fill="#FFD93D"/>
  <text class="inv-pct" x="422" y="1776" font-family="system-ui,-apple-system,'Segoe UI',sans-serif" font-size="11" fill="#999">50%</text>
  <text class="inv-name" x="24" y="1823" font-family="system-ui,-apple-system,'Segoe UI',sans-serif" font-size="14" font-weight="700" fill="#222">아이스티</text>
  <text class="inv-sub" x="24" y="1840" font-family="system-ui,-apple-system,'Segoe UI',sans-serif" font-size="11" fill="#AAAAAA">2/4캔 &#160;·&#160; 2개 섭취</text>
  <rect class="inv-bar-bg" x="200" y="1820" width="216" height="12" rx="6" fill="#EEEEEE"/>
  <rect x="200" y="1820" width="108" height="12" rx="6" fill="#FFD93D"/>
  <text class="inv-pct" x="422" y="1830" font-family="system-ui,-apple-system,'Segoe UI',sans-serif" font-size="11" fill="#999">50%</text>
  <rect class="inv-row-alt" x="0" y="1854" width="480" height="54" fill="#F9F9F9"/>
  <text class="inv-name" x="24" y="1877" font-family="system-ui,-apple-system,'Segoe UI',sans-serif" font-size="14" font-weight="700" fill="#222">자갈치</text>
  <text class="inv-sub" x="24" y="1894" font-family="system-ui,-apple-system,'Segoe UI',sans-serif" font-size="11" fill="#AAAAAA">2/3봉지 &#160;·&#160; 1개 섭취</text>
  <rect class="inv-bar-bg" x="200" y="1874" width="216" height="12" rx="6" fill="#EEEEEE"/>
  <rect x="200" y="1874" width="144" height="12" rx="6" fill="#6BCB77"/>
  <text class="inv-pct" x="422" y="1884" font-family="system-ui,-apple-system,'Segoe UI',sans-serif" font-size="11" fill="#999">67%</text>
  <text class="inv-name" x="24" y="1931" font-family="system-ui,-apple-system,'Segoe UI',sans-serif" font-size="14" font-weight="700" fill="#222">레몬에이드</text>
  <text class="inv-sub" x="24" y="1948" font-family="system-ui,-apple-system,'Segoe UI',sans-serif" font-size="11" fill="#AAAAAA">2/2캔 &#160;·&#160; 0개 섭취</text>
  <rect class="inv-bar-bg" x="200" y="1928" width="216" height="12" rx="6" fill="#EEEEEE"/>
  <rect x="200" y="1928" width="216" height="12" rx="6" fill="#6BCB77"/>
  <text class="inv-pct" x="422" y="1938" font-family="system-ui,-apple-system,'Segoe UI',sans-serif" font-size="11" fill="#999">100%</text>
  <rect class="inv-row-alt" x="0" y="1962" width="480" height="54" fill="#F9F9F9"/>
  <text class="inv-name" x="24" y="1985" font-family="system-ui,-apple-system,'Segoe UI',sans-serif" font-size="14" font-weight="700" fill="#222">맛동산</text>
  <text class="inv-sub" x="24" y="2002" font-family="system-ui,-apple-system,'Segoe UI',sans-serif" font-size="11" fill="#AAAAAA">2/2봉지 &#160;·&#160; 0개 섭취</text>
  <rect class="inv-bar-bg" x="200" y="1982" width="216" height="12" rx="6" fill="#EEEEEE"/>
  <rect x="200" y="1982" width="216" height="12" rx="6" fill="#6BCB77"/>
  <text class="inv-pct" x="422" y="1992" font-family="system-ui,-apple-system,'Segoe UI',sans-serif" font-size="11" fill="#999">100%</text>
  <text class="inv-name" x="24" y="2039" font-family="system-ui,-apple-system,'Segoe UI',sans-serif" font-size="14" font-weight="700" fill="#222">웰치스</text>
  <text class="inv-sub" x="24" y="2056" font-family="system-ui,-apple-system,'Segoe UI',sans-serif" font-size="11" fill="#AAAAAA">2/3캔 &#160;·&#160; 1개 섭취</text>
  <rect class="inv-bar-bg" x="200" y="2036" width="216" height="12" rx="6" fill="#EEEEEE"/>
  <rect x="200" y="2036" width="144" height="12" rx="6" fill="#6BCB77"/>
  <text class="inv-pct" x="422" y="2046" font-family="system-ui,-apple-system,'Segoe UI',sans-serif" font-size="11" fill="#999">67%</text>
  <rect class="inv-row-alt" x="0" y="2070" width="480" height="54" fill="#F9F9F9"/>
  <text class="inv-name" x="24" y="2093" font-family="system-ui,-apple-system,'Segoe UI',sans-serif" font-size="14" font-weight="700" fill="#222">밀키스</text>
  <text class="inv-sub" x="24" y="2110" font-family="system-ui,-apple-system,'Segoe UI',sans-serif" font-size="11" fill="#AAAAAA">2/3캔 &#160;·&#160; 1개 섭취</text>
  <rect class="inv-bar-bg" x="200" y="2090" width="216" height="12" rx="6" fill="#EEEEEE"/>
  <rect x="200" y="2090" width="144" height="12" rx="6" fill="#6BCB77"/>
  <text class="inv-pct" x="422" y="2100" font-family="system-ui,-apple-system,'Segoe UI',sans-serif" font-size="11" fill="#999">67%</text>
  <text class="inv-name" x="24" y="2147" font-family="system-ui,-apple-system,'Segoe UI',sans-serif" font-size="14" font-weight="700" fill="#222">마이쮸</text>
  <text class="inv-sub" x="24" y="2164" font-family="system-ui,-apple-system,'Segoe UI',sans-serif" font-size="11" fill="#AAAAAA">2/2개 &#160;·&#160; 0개 섭취</text>
  <rect class="inv-bar-bg" x="200" y="2144" width="216" height="12" rx="6" fill="#EEEEEE"/>
  <rect x="200" y="2144" width="216" height="12" rx="6" fill="#6BCB77"/>
  <text class="inv-pct" x="422" y="2154" font-family="system-ui,-apple-system,'Segoe UI',sans-serif" font-size="11" fill="#999">100%</text>
  <rect class="inv-row-alt" x="0" y="2178" width="480" height="54" fill="#F9F9F9"/>
  <text class="inv-name" x="24" y="2201" font-family="system-ui,-apple-system,'Segoe UI',sans-serif" font-size="14" font-weight="700" fill="#222">고래밥</text>
  <text class="inv-sub" x="24" y="2218" font-family="system-ui,-apple-system,'Segoe UI',sans-serif" font-size="11" fill="#AAAAAA">2/4봉지 &#160;·&#160; 2개 섭취</text>
  <rect class="inv-bar-bg" x="200" y="2198" width="216" height="12" rx="6" fill="#EEEEEE"/>
  <rect x="200" y="2198" width="108" height="12" rx="6" fill="#FFD93D"/>
  <text class="inv-pct" x="422" y="2208" font-family="system-ui,-apple-system,'Segoe UI',sans-serif" font-size="11" fill="#999">50%</text>
  <text class="inv-name" x="24" y="2255" font-family="system-ui,-apple-system,'Segoe UI',sans-serif" font-size="14" font-weight="700" fill="#222">버터와플</text>
  <text class="inv-sub" x="24" y="2272" font-family="system-ui,-apple-system,'Segoe UI',sans-serif" font-size="11" fill="#AAAAAA">2/3봉지 &#160;·&#160; 1개 섭취</text>
  <rect class="inv-bar-bg" x="200" y="2252" width="216" height="12" rx="6" fill="#EEEEEE"/>
  <rect x="200" y="2252" width="144" height="12" rx="6" fill="#6BCB77"/>
  <text class="inv-pct" x="422" y="2262" font-family="system-ui,-apple-system,'Segoe UI',sans-serif" font-size="11" fill="#999">67%</text>
  <rect class="inv-row-alt" x="0" y="2286" width="480" height="54" fill="#F9F9F9"/>
  <text class="inv-name" x="24" y="2309" font-family="system-ui,-apple-system,'Segoe UI',sans-serif" font-size="14" font-weight="700" fill="#222">홈런볼</text>
  <text class="inv-sub" x="24" y="2326" font-family="system-ui,-apple-system,'Segoe UI',sans-serif" font-size="11" fill="#AAAAAA">2/4봉지 &#160;·&#160; 2개 섭취</text>
  <rect class="inv-bar-bg" x="200" y="2306" width="216" height="12" rx="6" fill="#EEEEEE"/>
  <rect x="200" y="2306" width="108" height="12" rx="6" fill="#FFD93D"/>
  <text class="inv-pct" x="422" y="2316" font-family="system-ui,-apple-system,'Segoe UI',sans-serif" font-size="11" fill="#999">50%</text>
  <text class="inv-name" x="24" y="2363" font-family="system-ui,-apple-system,'Segoe UI',sans-serif" font-size="14" font-weight="700" fill="#222">맥콜</text>
  <text class="inv-sub" x="24" y="2380" font-family="system-ui,-apple-system,'Segoe UI',sans-serif" font-size="11" fill="#AAAAAA">2/2캔 &#160;·&#160; 0개 섭취</text>
  <rect class="inv-bar-bg" x="200" y="2360" width="216" height="12" rx="6" fill="#EEEEEE"/>
  <rect x="200" y="2360" width="216" height="12" rx="6" fill="#6BCB77"/>
  <text class="inv-pct" x="422" y="2370" font-family="system-ui,-apple-system,'Segoe UI',sans-serif" font-size="11" fill="#999">100%</text>
  <rect class="inv-row-alt" x="0" y="2394" width="480" height="54" fill="#F9F9F9"/>
  <text class="inv-name" x="24" y="2417" font-family="system-ui,-apple-system,'Segoe UI',sans-serif" font-size="14" font-weight="700" fill="#222">쿠크다스</text>
  <text class="inv-sub" x="24" y="2434" font-family="system-ui,-apple-system,'Segoe UI',sans-serif" font-size="11" fill="#AAAAAA">2/3봉지 &#160;·&#160; 1개 섭취</text>
  <rect class="inv-bar-bg" x="200" y="2414" width="216" height="12" rx="6" fill="#EEEEEE"/>
  <rect x="200" y="2414" width="144" height="12" rx="6" fill="#6BCB77"/>
  <text class="inv-pct" x="422" y="2424" font-family="system-ui,-apple-system,'Segoe UI',sans-serif" font-size="11" fill="#999">67%</text>
  <text class="inv-name" x="24" y="2471" font-family="system-ui,-apple-system,'Segoe UI',sans-serif" font-size="14" font-weight="700" fill="#222">핫식스</text>
  <text class="inv-sub" x="24" y="2488" font-family="system-ui,-apple-system,'Segoe UI',sans-serif" font-size="11" fill="#AAAAAA">2/2캔 &#160;·&#160; 0개 섭취</text>
  <rect class="inv-bar-bg" x="200" y="2468" width="216" height="12" rx="6" fill="#EEEEEE"/>
  <rect x="200" y="2468" width="216" height="12" rx="6" fill="#6BCB77"/>
  <text class="inv-pct" x="422" y="2478" font-family="system-ui,-apple-system,'Segoe UI',sans-serif" font-size="11" fill="#999">100%</text>
  <rect class="inv-row-alt" x="0" y="2502" width="480" height="54" fill="#F9F9F9"/>
  <text class="inv-name" x="24" y="2525" font-family="system-ui,-apple-system,'Segoe UI',sans-serif" font-size="14" font-weight="700" fill="#222">치토스</text>
  <text class="inv-sub" x="24" y="2542" font-family="system-ui,-apple-system,'Segoe UI',sans-serif" font-size="11" fill="#AAAAAA">2/3봉지 &#160;·&#160; 1개 섭취</text>
  <rect class="inv-bar-bg" x="200" y="2522" width="216" height="12" rx="6" fill="#EEEEEE"/>
  <rect x="200" y="2522" width="144" height="12" rx="6" fill="#6BCB77"/>
  <text class="inv-pct" x="422" y="2532" font-family="system-ui,-apple-system,'Segoe UI',sans-serif" font-size="11" fill="#999">67%</text>
  <text class="inv-name" x="24" y="2579" font-family="system-ui,-apple-system,'Segoe UI',sans-serif" font-size="14" font-weight="700" fill="#222">파워에이드</text>
  <text class="inv-sub" x="24" y="2596" font-family="system-ui,-apple-system,'Segoe UI',sans-serif" font-size="11" fill="#AAAAAA">2/2캔 &#160;·&#160; 0개 섭취</text>
  <rect class="inv-bar-bg" x="200" y="2576" width="216" height="12" rx="6" fill="#EEEEEE"/>
  <rect x="200" y="2576" width="216" height="12" rx="6" fill="#6BCB77"/>
  <text class="inv-pct" x="422" y="2586" font-family="system-ui,-apple-system,'Segoe UI',sans-serif" font-size="11" fill="#999">100%</text>
  <rect class="inv-row-alt" x="0" y="2610" width="480" height="54" fill="#F9F9F9"/>
  <text class="inv-name" x="24" y="2633" font-family="system-ui,-apple-system,'Segoe UI',sans-serif" font-size="14" font-weight="700" fill="#222">칙촉</text>
  <text class="inv-sub" x="24" y="2650" font-family="system-ui,-apple-system,'Segoe UI',sans-serif" font-size="11" fill="#AAAAAA">1/2봉지 &#160;·&#160; 1개 섭취</text>
  <rect class="inv-bar-bg" x="200" y="2630" width="216" height="12" rx="6" fill="#EEEEEE"/>
  <rect x="200" y="2630" width="108" height="12" rx="6" fill="#FFD93D"/>
  <text class="inv-pct" x="422" y="2640" font-family="system-ui,-apple-system,'Segoe UI',sans-serif" font-size="11" fill="#999">50%</text>
  <text class="inv-name" x="24" y="2687" font-family="system-ui,-apple-system,'Segoe UI',sans-serif" font-size="14" font-weight="700" fill="#222">에이스</text>
  <text class="inv-sub" x="24" y="2704" font-family="system-ui,-apple-system,'Segoe UI',sans-serif" font-size="11" fill="#AAAAAA">1/2봉지 &#160;·&#160; 1개 섭취</text>
  <rect class="inv-bar-bg" x="200" y="2684" width="216" height="12" rx="6" fill="#EEEEEE"/>
  <rect x="200" y="2684" width="108" height="12" rx="6" fill="#FFD93D"/>
  <text class="inv-pct" x="422" y="2694" font-family="system-ui,-apple-system,'Segoe UI',sans-serif" font-size="11" fill="#999">50%</text>
  <rect class="inv-row-alt" x="0" y="2718" width="480" height="54" fill="#F9F9F9"/>
  <text class="inv-name" x="24" y="2741" font-family="system-ui,-apple-system,'Segoe UI',sans-serif" font-size="14" font-weight="700" fill="#222">다이제</text>
  <text class="inv-sub" x="24" y="2758" font-family="system-ui,-apple-system,'Segoe UI',sans-serif" font-size="11" fill="#AAAAAA">1/1박스 &#160;·&#160; 0개 섭취</text>
  <rect class="inv-bar-bg" x="200" y="2738" width="216" height="12" rx="6" fill="#EEEEEE"/>
  <rect x="200" y="2738" width="216" height="12" rx="6" fill="#6BCB77"/>
  <text class="inv-pct" x="422" y="2748" font-family="system-ui,-apple-system,'Segoe UI',sans-serif" font-size="11" fill="#999">100%</text>
  <text class="inv-name" x="24" y="2795" font-family="system-ui,-apple-system,'Segoe UI',sans-serif" font-size="14" font-weight="700" fill="#222">브라우니</text>
  <text class="inv-sub" x="24" y="2812" font-family="system-ui,-apple-system,'Segoe UI',sans-serif" font-size="11" fill="#AAAAAA">1/1개 &#160;·&#160; 0개 섭취</text>
  <rect class="inv-bar-bg" x="200" y="2792" width="216" height="12" rx="6" fill="#EEEEEE"/>
  <rect x="200" y="2792" width="216" height="12" rx="6" fill="#6BCB77"/>
  <text class="inv-pct" x="422" y="2802" font-family="system-ui,-apple-system,'Segoe UI',sans-serif" font-size="11" fill="#999">100%</text>
  <rect class="inv-row-alt" x="0" y="2826" width="480" height="54" fill="#F9F9F9"/>
  <text class="inv-name" x="24" y="2849" font-family="system-ui,-apple-system,'Segoe UI',sans-serif" font-size="14" font-weight="700" fill="#222">마카롱</text>
  <text class="inv-sub" x="24" y="2866" font-family="system-ui,-apple-system,'Segoe UI',sans-serif" font-size="11" fill="#AAAAAA">1/1개 &#160;·&#160; 0개 섭취</text>
  <rect class="inv-bar-bg" x="200" y="2846" width="216" height="12" rx="6" fill="#EEEEEE"/>
  <rect x="200" y="2846" width="216" height="12" rx="6" fill="#6BCB77"/>
  <text class="inv-pct" x="422" y="2856" font-family="system-ui,-apple-system,'Segoe UI',sans-serif" font-size="11" fill="#999">100%</text>
  <text class="inv-name" x="24" y="2903" font-family="system-ui,-apple-system,'Segoe UI',sans-serif" font-size="14" font-weight="700" fill="#222">초코송이</text>
  <text class="inv-sub" x="24" y="2920" font-family="system-ui,-apple-system,'Segoe UI',sans-serif" font-size="11" fill="#AAAAAA">1/1봉지 &#160;·&#160; 0개 섭취</text>
  <rect class="inv-bar-bg" x="200" y="2900" width="216" height="12" rx="6" fill="#EEEEEE"/>
  <rect x="200" y="2900" width="216" height="12" rx="6" fill="#6BCB77"/>
  <text class="inv-pct" x="422" y="2910" font-family="system-ui,-apple-system,'Segoe UI',sans-serif" font-size="11" fill="#999">100%</text>
  <rect class="inv-row-alt" x="0" y="2934" width="480" height="54" fill="#F9F9F9"/>
  <text class="inv-name" x="24" y="2957" font-family="system-ui,-apple-system,'Segoe UI',sans-serif" font-size="14" font-weight="700" fill="#222">초코파이</text>
  <text class="inv-sub" x="24" y="2974" font-family="system-ui,-apple-system,'Segoe UI',sans-serif" font-size="11" fill="#AAAAAA">0/0개 &#160;·&#160; 7개 섭취</text>
  <rect class="inv-bar-bg" x="200" y="2954" width="216" height="12" rx="6" fill="#EEEEEE"/>
  <text class="inv-pct" x="422" y="2964" font-family="system-ui,-apple-system,'Segoe UI',sans-serif" font-size="11" fill="#999">0%</text>
</svg>
